[Header]
FileType HTR
DataType HTRS
FileVersion 1
NumSegments 22
NumFrames 5
DataFrameRate 24
EulerRotationOrder ZYX
CalibrationUnits mm
RotationUnits Degrees
GlobalAxisofGravity Y
BoneLengthAxis Y
ScaleFactor 1.0
[SegmentNames&Hierarchy]
reference	GLOBAL
Hips	reference
Spine	Hips
Spine1	Spine
Neck	Spine1
Head	Neck
LeftShoulder	Spine1
LeftArm	LeftShoulder
LeftForeArm	LeftArm
LeftHand	LeftForeArm
RightShoulder	Spine1
RightArm	RightShoulder
RightForeArm	RightArm
RightHand	RightForeArm
LeftUpLeg	Hips
LeftLeg	LeftUpLeg
LeftFoot	LeftLeg
LeftToeBase	LeftFoot
RightUpLeg	Hips
RightLeg	RightUpLeg
RightFoot	RightLeg
RightToeBase	RightFoot
[BasePosition]
reference	0	0	0	0	0	0	1
Hips	0	0	0	0	0	0	1
Spine	0	0	0	0	-0	90	1
Spine1	0	0	0	0	0	0	1
Neck	0	0	0	-7.352430803	-7.352430803	90	1
Head	0	0	0	0	-0	90	1
LeftShoulder	0	0	0	0	0	0	1
LeftArm	0	0	0	0	0	0	1
LeftForeArm	0	0	0	0	0	0	1
LeftHand	0	0	0	0	0	0	1
RightShoulder	0	0	0	0	-0	180	1
RightArm	0	0	0	0	-0	180	1
RightForeArm	0	0	0	0	-0	180	1
RightHand	0	0	0	0	-0	180	1
LeftUpLeg	0	0	0	0	-0	-90	1
LeftLeg	0	0	0	0	-0	-90	1
LeftFoot	0	0	0	66.57150701	-66.57150701	-90	1
LeftToeBase	0	0	0	0	-90	0	1
RightUpLeg	0	0	0	0	-0	-90	1
RightLeg	0	0	0	0	-0	-90	1
RightFoot	0	0	0	66.57150701	-66.57150701	-90	1
RightToeBase	0	0	0	0	-90	0	1
[reference]
20	0	0	0	0	-0	0	1.0
21	0	0	0	0	-0	0	1.0
22	0	0	0	0	-0	0	1.0
23	0	0	0	0	-0	0	1.0
24	0	0	0	0	-0	0	1.0
[Hips]
20	0.64040488	8.756011963	0.2845178843	2.289304495	-96.04293823	2.566341639	1.0
21	0.713039577	8.746515274	0.2761283815	3.543538809	-95.32392883	2.140798569	1.0
22	0.7861298323	8.739619255	0.23562558	1.054344177	-94.93736267	5.036245346	1.0
23	0.8517763615	8.810112	0.1933800429	-6.692427635	-94.40463257	13.13422012	1.0
24	0.9164071083	8.850976944	0.1260871589	-20.99577713	-93.47093201	27.66293526	1.0
[Spine]
20	0	0.7478299737	0	-11.95583534	0.9369667768	-90.92018127	1.0
21	0	0.7478299737	0	-12.09404659	1.817007661	-91.10928345	1.0
22	0	0.7478299737	0	-11.71625328	3.091803551	-91.13510895	1.0
23	0	0.7478299737	0	-11.53841305	4.194749355	-90.66721344	1.0
24	0	0.7478299737	0	-11.65640831	4.738454342	-90.11994934	1.0
[Spine1]
20	0	2.049309969	0	11.69761944	0.2986539304	0.4956802428	1.0
21	0	2.049309969	0	11.71852112	0.6104162931	0.3581423759	1.0
22	0	2.049309969	0	11.03462601	1.028775334	0.5228069425	1.0
23	0	2.049309969	0	10.33476448	1.383136153	0.4652529061	1.0
24	0	2.049309969	0	9.520005226	1.540724277	0.4541638196	1.0
[Neck]
20	0	2.231709957	0	-9.974537849	0.9999591112	-88.52825928	1.0
21	0	2.231709957	0	-11.42525578	0.1635862142	-87.92931366	1.0
22	0	2.231709957	0	-11.91197205	-0.7035354376	-87.62840271	1.0
23	0	2.231709957	0	-12.07959366	-1.166027546	-87.46266174	1.0
24	0	2.231709957	0	-11.36262798	-5.81286335	-87.30281067	1.0
[Head]
20	0	1.413589954	0.1823999882	-6.350651264	-6.831634521	-86.55992126	1.0
21	0	1.413589954	0.1823999882	-6.158784389	-7.768558502	-86.37168121	1.0
22	0	1.413589954	0.1823999882	-6.570153713	-8.69889164	-85.9535675	1.0
23	0	1.413589954	0.1823999882	-6.88330555	-9.848138809	-85.48420715	1.0
24	0	1.413589954	0.1823999882	-7.010832787	-6.472017765	-85.61040497	1.0
[LeftShoulder]
20	0.3649300039	1.825889945	-0.04271000251	-12.45277977	-7.441793442	1.406150222	1.0
21	0.3649300039	1.825889945	-0.04271000251	-12.32463074	-7.33613205	1.977983713	1.0
22	0.3649300039	1.825889945	-0.04271000251	-11.28766155	-7.27324295	2.193291664	1.0
23	0.3649300039	1.825889945	-0.04271000251	-10.53091526	-7.136116982	2.987280846	1.0
24	0.3649300039	1.825889945	-0.04271000251	-9.522823334	-7.077076912	4.05298233	1.0
[LeftArm]
20	1.24003005	0	0	38.98706055	7.864504814	-78.88790131	1.0
21	1.24003005	0	0	36.45278168	8.676062584	-78.84483337	1.0
22	1.24003005	0	0	33.25462341	9.645194054	-78.32820129	1.0
23	1.24003005	0	0	28.80867004	11.60757065	-78.05817413	1.0
24	1.24003005	0	0	23.19105911	13.89269257	-77.7806778	1.0
[LeftForeArm]
20	2.847419977	0	0	-10.74398327	-14.68102646	-3.075282574	1.0
21	2.847419977	0	0	-8.972699165	-14.18725586	-4.224600792	1.0
22	2.847419977	0	0	-6.461305618	-13.07167625	-6.311006546	1.0
23	2.847419977	0	0	-4.388832092	-11.13578033	-9.070861816	1.0
24	2.847419977	0	0	-0.6368284225	-7.786370277	-11.93547821	1.0
[LeftHand]
20	2.258270025	0	0	-11.05358315	-5.884624958	-1.689457536	1.0
21	2.258270025	0	0	-9.577511787	-4.967103958	1.809006572	1.0
22	2.258270025	0	0	-7.285681725	-3.966510534	2.893113136	1.0
23	2.258270025	0	0	-5.357348919	-3.349006176	2.805306196	1.0
24	2.258270025	0	0	-1.48491466	-1.791416407	2.072232246	1.0
[RightShoulder]
20	-0.3646599948	1.825889945	-0.04271000251	-8.300660133	9.118491173	-179.6893005	1.0
21	-0.3646599948	1.825889945	-0.04271000251	-8.674279213	9.714194298	-179.6791229	1.0
22	-0.3646599948	1.825889945	-0.04271000251	-8.804810524	10.03364182	-179.6285095	1.0
23	-0.3646599948	1.825889945	-0.04271000251	-8.814586639	10.10792637	-179.8343201	1.0
24	-0.3646599948	1.825889945	-0.04271000251	-8.671555519	10.18658924	-180.4448853	1.0
[RightArm]
20	-1.24003005	0	0	51.14673233	-3.201486111	-101.0561066	1.0
21	-1.24003005	0	0	53.00310516	-2.641884804	-100.8396759	1.0
22	-1.24003005	0	0	55.27752304	-1.921827793	-100.9566116	1.0
23	-1.24003005	0	0	57.27186584	-0.4599356353	-101.5135345	1.0
24	-1.24003005	0	0	59.62062454	1.628490925	-102.5044479	1.0
[RightForeArm]
20	-2.847419977	0	0	1.066465616	15.13842773	178.3119354	1.0
21	-2.847419977	0	0	1.524209738	16.17009544	177.4515381	1.0
22	-2.847419977	0	0	2.056213856	18.55771446	176.5316315	1.0
23	-2.847419977	0	0	3.917650223	23.00944138	177.0004883	1.0
24	-2.847419977	0	0	6.721036911	29.73178864	178.369873	1.0
[RightHand]
20	-2.258270025	0	0	0.8915794492	7.402327538	173.849884	1.0
21	-2.258270025	0	0	1.374872327	7.163638592	171.8448486	1.0
22	-2.258270025	0	0	1.931104183	7.10334301	168.864563	1.0
23	-2.258270025	0	0	3.53280735	7.977162361	165.9607849	1.0
24	-2.258270025	0	0	5.861866474	10.11883354	165.5705261	1.0
[LeftUpLeg]
20	0.9119900465	0	0	-14.01525497	-3.059382677	90.33596802	1.0
21	0.9119900465	0	0	-15.12257481	-5.047790527	91.31273651	1.0
22	0.9119900465	0	0	-14.20014381	-5.549645424	91.76851654	1.0
23	0.9119900465	0	0	-11.87660694	-4.648932457	91.83853149	1.0
24	0.9119900465	0	0	-9.184936523	-5.166056156	92.978508	1.0
[LeftLeg]
20	0	-4.371409893	0	27.88074493	-5.08810091	84.79305267	1.0
21	0	-4.371409893	0	26.99451447	-3.876987934	83.97852325	1.0
22	0	-4.371409893	0	22.97046089	-3.158260345	85.23776245	1.0
23	0	-4.371409893	0	16.46156883	-2.962976933	87.79859924	1.0
24	0	-4.371409893	0	9.07476902	-2.673528194	88.48841095	1.0
[LeftFoot]
20	0	-3.918009996	0	-100.4212189	111.8247833	-49.06267166	1.0
21	0	-3.918009996	0	-99.2715683	112.0425491	-48.50268555	1.0
22	0	-3.918009996	0	-99.29397583	111.3858948	-50.95187378	1.0
23	0	-3.918009996	0	-100.6442947	110.4067154	-56.91803741	1.0
24	0	-3.918009996	0	-96.74160004	109.653244	-58.35214996	1.0
[LeftToeBase]
20	0	-0.5927900076	1.367989898	0	0	0	1.0
21	0	-0.5927900076	1.367989898	0	0	0	1.0
22	0	-0.5927900076	1.367989898	0	0	0	1.0
23	0	-0.5927900076	1.367989898	0	0	0	1.0
24	0	-0.5927900076	1.367989898	0	0	0	1.0
[RightUpLeg]
20	-0.9119900465	0	0	-14.88991451	-2.31628561	95.79286957	1.0
21	-0.9119900465	0	0	-17.09981918	-4.824941158	96.37043762	1.0
22	-0.9119900465	0	0	-17.37516212	-5.688324928	96.5165329	1.0
23	-0.9119900465	0	0	-16.12607193	-4.883569241	96.13127899	1.0
24	-0.9119900465	0	0	-13.82983112	-3.317248821	95.41664886	1.0
[RightLeg]
20	0	-4.371409893	0	32.02651978	7.322677135	84.7467804	1.0
21	0	-4.371409893	0	34.19797134	8.013671875	84.11804199	1.0
22	0	-4.371409893	0	34.32193756	6.902275085	83.27377319	1.0
23	0	-4.371409893	0	33.0871582	6.282011509	83.45982361	1.0
24	0	-4.371409893	0	31.64583778	6.13101387	83.98757935	1.0
[RightFoot]
20	0	-3.918009996	0	33.12683105	55.34748077	80.36833191	1.0
21	0	-3.918009996	0	33.15867996	55.13088989	80.72124481	1.0
22	0	-3.918009996	0	31.71819878	56.32081985	77.91773987	1.0
23	0	-3.918009996	0	32.9848175	57.42414093	76.84107971	1.0
24	0	-3.918009996	0	36.19949722	57.24025726	77.97342682	1.0
[RightToeBase]
20	0	-0.5927900076	1.367989898	0	0	0	1.0
21	0	-0.5927900076	1.367989898	0	0	0	1.0
22	0	-0.5927900076	1.367989898	0	0	0	1.0
23	0	-0.5927900076	1.367989898	0	0	0	1.0
24	0	-0.5927900076	1.367989898	0	0	0	1.0
[EndOfFile]
